<mxfile host="65bd71144e">
    <diagram id="XbohCqr-4OWFWVRMvJf-" name="Page-1">
        <mxGraphModel dx="1082" dy="749" grid="1" gridSize="10" guides="1" tooltips="1" connect="1" arrows="1" fold="1" page="1" pageScale="1" pageWidth="850" pageHeight="1100" math="0" shadow="0">
            <root>
                <mxCell id="0"/>
                <mxCell id="1" parent="0"/>
                <mxCell id="4" value="" style="edgeStyle=none;html=1;fontFamily=Helvetica;" parent="1" source="2" target="3" edge="1">
                    <mxGeometry relative="1" as="geometry"/>
                </mxCell>
                <mxCell id="2" value="Start" style="strokeWidth=2;html=1;shape=mxgraph.flowchart.terminator;whiteSpace=wrap;" parent="1" vertex="1">
                    <mxGeometry x="110" y="60" width="100" height="60" as="geometry"/>
                </mxCell>
                <mxCell id="7" value="" style="edgeStyle=none;html=1;fontFamily=Helvetica;fontSize=11;" parent="1" source="3" target="5" edge="1">
                    <mxGeometry relative="1" as="geometry"/>
                </mxCell>
                <mxCell id="14" value="" style="edgeStyle=none;html=1;fontFamily=Helvetica;fontSize=11;" parent="1" source="3" target="12" edge="1">
                    <mxGeometry relative="1" as="geometry"/>
                </mxCell>
                <mxCell id="3" value="&lt;font color=&quot;#000000&quot;&gt;&lt;span class=&quot;pl-k&quot; style=&quot;box-sizing: border-box&quot;&gt;if&lt;/span&gt; &lt;span class=&quot;pl-kos&quot; style=&quot;box-sizing: border-box&quot;&gt;(&lt;/span&gt;&lt;span class=&quot;pl-smi&quot; style=&quot;box-sizing: border-box&quot;&gt;this&lt;/span&gt;&lt;span class=&quot;pl-kos&quot; style=&quot;box-sizing: border-box&quot;&gt;.&lt;/span&gt;&lt;span class=&quot;pl-c1&quot; style=&quot;box-sizing: border-box&quot;&gt;sideA&lt;/span&gt; &lt;span class=&quot;pl-c1&quot; style=&quot;box-sizing: border-box&quot;&gt;===&lt;/span&gt; &lt;br&gt;&lt;span class=&quot;pl-smi&quot; style=&quot;box-sizing: border-box&quot;&gt;this&lt;/span&gt;&lt;span class=&quot;pl-kos&quot; style=&quot;box-sizing: border-box&quot;&gt;.&lt;/span&gt;&lt;span class=&quot;pl-c1&quot; style=&quot;box-sizing: border-box&quot;&gt;sideB&lt;/span&gt; &lt;span class=&quot;pl-c1&quot; style=&quot;box-sizing: border-box&quot;&gt;&amp;amp;&amp;amp;&lt;/span&gt; &lt;span class=&quot;pl-smi&quot; style=&quot;box-sizing: border-box&quot;&gt;this&lt;/span&gt;&lt;span class=&quot;pl-kos&quot; style=&quot;box-sizing: border-box&quot;&gt;.&lt;/span&gt;&lt;span class=&quot;pl-c1&quot; style=&quot;box-sizing: border-box&quot;&gt;sideB&lt;/span&gt; &lt;span class=&quot;pl-c1&quot; style=&quot;box-sizing: border-box&quot;&gt;===&lt;/span&gt; &lt;br&gt;&lt;span class=&quot;pl-smi&quot; style=&quot;box-sizing: border-box&quot;&gt;this&lt;/span&gt;&lt;span class=&quot;pl-kos&quot; style=&quot;box-sizing: border-box&quot;&gt;.&lt;/span&gt;&lt;span class=&quot;pl-c1&quot; style=&quot;box-sizing: border-box&quot;&gt;sideC&lt;/span&gt; &lt;span class=&quot;pl-c1&quot; style=&quot;box-sizing: border-box&quot;&gt;&amp;amp;&amp;amp;&lt;/span&gt; &lt;span class=&quot;pl-smi&quot; style=&quot;box-sizing: border-box&quot;&gt;this&lt;/span&gt;&lt;span class=&quot;pl-kos&quot; style=&quot;box-sizing: border-box&quot;&gt;.&lt;/span&gt;&lt;span class=&quot;pl-c1&quot; style=&quot;box-sizing: border-box&quot;&gt;sideA&lt;/span&gt; &lt;span class=&quot;pl-c1&quot; style=&quot;box-sizing: border-box&quot;&gt;===&lt;/span&gt; &lt;span class=&quot;pl-smi&quot; style=&quot;box-sizing: border-box&quot;&gt;this&lt;/span&gt;&lt;span class=&quot;pl-kos&quot; style=&quot;box-sizing: border-box&quot;&gt;.&lt;/span&gt;&lt;span class=&quot;pl-c1&quot; style=&quot;box-sizing: border-box&quot;&gt;sideC&lt;/span&gt;&lt;span class=&quot;pl-kos&quot; style=&quot;box-sizing: border-box&quot;&gt;)&lt;/span&gt;&lt;/font&gt;" style="strokeWidth=2;html=1;shape=mxgraph.flowchart.decision;whiteSpace=wrap;" parent="1" vertex="1">
                    <mxGeometry x="65" y="150" width="190" height="170" as="geometry"/>
                </mxCell>
                <mxCell id="8" value="" style="edgeStyle=none;html=1;fontFamily=Helvetica;fontSize=11;" parent="1" source="5" target="6" edge="1">
                    <mxGeometry relative="1" as="geometry"/>
                </mxCell>
                <mxCell id="13" value="" style="edgeStyle=none;html=1;fontFamily=Helvetica;fontSize=11;" parent="1" source="5" target="10" edge="1">
                    <mxGeometry relative="1" as="geometry"/>
                </mxCell>
                <mxCell id="5" value="&lt;font color=&quot;#000000&quot;&gt;&lt;span class=&quot;pl-k&quot; style=&quot;box-sizing: border-box ; font-family: , , &amp;#34;sf mono&amp;#34; , &amp;#34;menlo&amp;#34; , &amp;#34;consolas&amp;#34; , &amp;#34;liberation mono&amp;#34; , monospace&quot;&gt;else&lt;/span&gt; &lt;span class=&quot;pl-k&quot; style=&quot;box-sizing: border-box ; font-family: , , &amp;#34;sf mono&amp;#34; , &amp;#34;menlo&amp;#34; , &amp;#34;consolas&amp;#34; , &amp;#34;liberation mono&amp;#34; , monospace&quot;&gt;if&lt;/span&gt; &lt;span class=&quot;pl-smi&quot; style=&quot;box-sizing: border-box&quot;&gt;this&lt;/span&gt;&lt;span class=&quot;pl-kos&quot; style=&quot;box-sizing: border-box&quot;&gt;.&lt;/span&gt;&lt;span class=&quot;pl-c1&quot; style=&quot;box-sizing: border-box ; font-family: , , &amp;#34;sf mono&amp;#34; , &amp;#34;menlo&amp;#34; , &amp;#34;consolas&amp;#34; , &amp;#34;liberation mono&amp;#34; , monospace&quot;&gt;sideA&lt;/span&gt; &lt;span class=&quot;pl-c1&quot; style=&quot;box-sizing: border-box ; font-family: , , &amp;#34;sf mono&amp;#34; , &amp;#34;menlo&amp;#34; , &amp;#34;consolas&amp;#34; , &amp;#34;liberation mono&amp;#34; , monospace&quot;&gt;===&lt;/span&gt; &lt;br&gt;&lt;span class=&quot;pl-smi&quot; style=&quot;box-sizing: border-box&quot;&gt;this&lt;/span&gt;&lt;span class=&quot;pl-kos&quot; style=&quot;box-sizing: border-box&quot;&gt;.&lt;/span&gt;&lt;span class=&quot;pl-c1&quot; style=&quot;box-sizing: border-box ; font-family: , , &amp;#34;sf mono&amp;#34; , &amp;#34;menlo&amp;#34; , &amp;#34;consolas&amp;#34; , &amp;#34;liberation mono&amp;#34; , monospace&quot;&gt;sideB&lt;/span&gt; &lt;span class=&quot;pl-c1&quot; style=&quot;box-sizing: border-box ; font-family: , , &amp;#34;sf mono&amp;#34; , &amp;#34;menlo&amp;#34; , &amp;#34;consolas&amp;#34; , &amp;#34;liberation mono&amp;#34; , monospace&quot;&gt;||&lt;/span&gt; &lt;span class=&quot;pl-smi&quot; style=&quot;box-sizing: border-box&quot;&gt;this&lt;/span&gt;&lt;span class=&quot;pl-kos&quot; style=&quot;box-sizing: border-box&quot;&gt;.&lt;/span&gt;&lt;span class=&quot;pl-c1&quot; style=&quot;box-sizing: border-box ; font-family: , , &amp;#34;sf mono&amp;#34; , &amp;#34;menlo&amp;#34; , &amp;#34;consolas&amp;#34; , &amp;#34;liberation mono&amp;#34; , monospace&quot;&gt;sideB&lt;/span&gt; &lt;span class=&quot;pl-c1&quot; style=&quot;box-sizing: border-box ; font-family: , , &amp;#34;sf mono&amp;#34; , &amp;#34;menlo&amp;#34; , &amp;#34;consolas&amp;#34; , &amp;#34;liberation mono&amp;#34; , monospace&quot;&gt;===&lt;/span&gt; &lt;br&gt;&lt;span class=&quot;pl-smi&quot; style=&quot;box-sizing: border-box&quot;&gt;this&lt;/span&gt;&lt;span class=&quot;pl-kos&quot; style=&quot;box-sizing: border-box&quot;&gt;.&lt;/span&gt;&lt;span class=&quot;pl-c1&quot; style=&quot;box-sizing: border-box ; font-family: , , &amp;#34;sf mono&amp;#34; , &amp;#34;menlo&amp;#34; , &amp;#34;consolas&amp;#34; , &amp;#34;liberation mono&amp;#34; , monospace&quot;&gt;sideC&lt;/span&gt; &lt;span class=&quot;pl-c1&quot; style=&quot;box-sizing: border-box ; font-family: , , &amp;#34;sf mono&amp;#34; , &amp;#34;menlo&amp;#34; , &amp;#34;consolas&amp;#34; , &amp;#34;liberation mono&amp;#34; , monospace&quot;&gt;||&lt;/span&gt; &lt;span class=&quot;pl-smi&quot; style=&quot;box-sizing: border-box&quot;&gt;this&lt;/span&gt;&lt;span class=&quot;pl-kos&quot; style=&quot;box-sizing: border-box&quot;&gt;.&lt;/span&gt;&lt;span class=&quot;pl-c1&quot; style=&quot;box-sizing: border-box ; font-family: , , &amp;#34;sf mono&amp;#34; , &amp;#34;menlo&amp;#34; , &amp;#34;consolas&amp;#34; , &amp;#34;liberation mono&amp;#34; , monospace&quot;&gt;sideA&lt;/span&gt; &lt;span class=&quot;pl-c1&quot; style=&quot;box-sizing: border-box ; font-family: , , &amp;#34;sf mono&amp;#34; , &amp;#34;menlo&amp;#34; , &amp;#34;consolas&amp;#34; , &amp;#34;liberation mono&amp;#34; , monospace&quot;&gt;===&lt;/span&gt; &lt;span class=&quot;pl-smi&quot; style=&quot;box-sizing: border-box&quot;&gt;this&lt;/span&gt;&lt;span class=&quot;pl-kos&quot; style=&quot;box-sizing: border-box&quot;&gt;.&lt;/span&gt;&lt;span class=&quot;pl-c1&quot; style=&quot;box-sizing: border-box ; font-family: , , &amp;#34;sf mono&amp;#34; , &amp;#34;menlo&amp;#34; , &amp;#34;consolas&amp;#34; , &amp;#34;liberation mono&amp;#34; , monospace&quot;&gt;sideC&lt;/span&gt;&lt;/font&gt;" style="strokeWidth=2;html=1;shape=mxgraph.flowchart.decision;whiteSpace=wrap;" parent="1" vertex="1">
                    <mxGeometry x="290" y="150" width="190" height="170" as="geometry"/>
                </mxCell>
                <mxCell id="16" value="" style="edgeStyle=none;html=1;fontFamily=Helvetica;fontSize=11;" parent="1" source="6" target="15" edge="1">
                    <mxGeometry relative="1" as="geometry"/>
                </mxCell>
                <mxCell id="19" style="edgeStyle=none;rounded=0;html=1;entryX=0.5;entryY=0;entryDx=0;entryDy=0;exitX=1;exitY=0.5;exitDx=0;exitDy=0;exitPerimeter=0;" parent="1" source="6" target="17" edge="1">
                    <mxGeometry relative="1" as="geometry">
                        <Array as="points">
                            <mxPoint x="905" y="235"/>
                        </Array>
                    </mxGeometry>
                </mxCell>
                <mxCell id="6" value="&lt;pre style=&quot;overflow-wrap: break-word ; font-size: 11px&quot;&gt;&lt;font face=&quot;Helvetica&quot; style=&quot;font-size: 11px&quot; color=&quot;#000000&quot;&gt;else if this.sideA ** 2 + &lt;/font&gt;&lt;/pre&gt;&lt;pre style=&quot;overflow-wrap: break-word ; font-size: 11px&quot;&gt;&lt;font face=&quot;Helvetica&quot; style=&quot;font-size: 11px&quot; color=&quot;#000000&quot;&gt;this.sideB ** 2 ===  &lt;/font&gt;&lt;/pre&gt;&lt;pre style=&quot;overflow-wrap: break-word ; font-size: 11px&quot;&gt;&lt;font face=&quot;Helvetica&quot; style=&quot;font-size: 11px&quot; color=&quot;#000000&quot;&gt;this.sideC ** 2 ||&lt;/font&gt;&lt;/pre&gt;&lt;pre style=&quot;overflow-wrap: break-word ; font-size: 11px&quot;&gt;&lt;font face=&quot;Helvetica&quot; style=&quot;font-size: 11px&quot; color=&quot;#000000&quot;&gt;this.sideC ** 2 - this.sideA ** 2 === &lt;/font&gt;&lt;/pre&gt;&lt;pre style=&quot;overflow-wrap: break-word ; font-size: 11px&quot;&gt;&lt;font face=&quot;Helvetica&quot; style=&quot;font-size: 11px&quot; color=&quot;#000000&quot;&gt;this.sideB ** 2 || this.sideC ** 2 - &lt;/font&gt;&lt;/pre&gt;&lt;pre style=&quot;overflow-wrap: break-word ; font-size: 11px&quot;&gt;&lt;font face=&quot;Helvetica&quot; style=&quot;font-size: 11px&quot; color=&quot;#000000&quot;&gt;this.sideB ** 2 === this.sideA ** 2&lt;/font&gt;&lt;span style=&quot;color: rgb(255 , 255 , 255) ; font-size: 11px&quot;&gt;&lt;br&gt;&lt;/span&gt;&lt;/pre&gt;" style="strokeWidth=2;html=1;shape=mxgraph.flowchart.decision;whiteSpace=wrap;" parent="1" vertex="1">
                    <mxGeometry x="520" y="100" width="330" height="270" as="geometry"/>
                </mxCell>
                <mxCell id="22" style="edgeStyle=none;rounded=0;html=1;entryX=0.5;entryY=0;entryDx=0;entryDy=0;entryPerimeter=0;" parent="1" source="10" target="20" edge="1">
                    <mxGeometry relative="1" as="geometry">
                        <Array as="points">
                            <mxPoint x="385" y="470"/>
                            <mxPoint x="160" y="470"/>
                        </Array>
                    </mxGeometry>
                </mxCell>
                <mxCell id="10" value="return &quot;This is an &lt;br&gt;isosceles triangle.&quot;" style="shape=parallelogram;html=1;strokeWidth=2;perimeter=parallelogramPerimeter;whiteSpace=wrap;rounded=1;arcSize=12;size=0.23;labelBackgroundColor=none;fontFamily=Helvetica;fontSize=11;" parent="1" vertex="1">
                    <mxGeometry x="297.5" y="350" width="175" height="80" as="geometry"/>
                </mxCell>
                <mxCell id="21" value="" style="edgeStyle=none;rounded=0;html=1;" parent="1" source="12" target="20" edge="1">
                    <mxGeometry relative="1" as="geometry"/>
                </mxCell>
                <mxCell id="12" value="return &quot;This is an &lt;br&gt;equilateral triangle.&quot;" style="shape=parallelogram;html=1;strokeWidth=2;perimeter=parallelogramPerimeter;whiteSpace=wrap;rounded=1;arcSize=12;size=0.23;labelBackgroundColor=none;fontFamily=Helvetica;fontSize=11;" parent="1" vertex="1">
                    <mxGeometry x="72.5" y="350" width="175" height="80" as="geometry"/>
                </mxCell>
                <mxCell id="24" style="edgeStyle=none;rounded=0;html=1;entryX=0.5;entryY=0;entryDx=0;entryDy=0;entryPerimeter=0;" parent="1" source="15" target="20" edge="1">
                    <mxGeometry relative="1" as="geometry">
                        <Array as="points">
                            <mxPoint x="685" y="470"/>
                            <mxPoint x="160" y="470"/>
                        </Array>
                    </mxGeometry>
                </mxCell>
                <mxCell id="15" value="return &quot;This is a right angle triangle.&quot;" style="shape=parallelogram;html=1;strokeWidth=2;perimeter=parallelogramPerimeter;whiteSpace=wrap;rounded=1;arcSize=12;size=0.23;labelBackgroundColor=none;fontFamily=Helvetica;fontSize=11;" parent="1" vertex="1">
                    <mxGeometry x="597.5" y="385" width="175" height="80" as="geometry"/>
                </mxCell>
                <mxCell id="25" style="edgeStyle=none;rounded=0;html=1;entryX=0.5;entryY=0;entryDx=0;entryDy=0;entryPerimeter=0;" parent="1" source="17" target="20" edge="1">
                    <mxGeometry relative="1" as="geometry">
                        <Array as="points">
                            <mxPoint x="905" y="470"/>
                            <mxPoint x="160" y="470"/>
                        </Array>
                    </mxGeometry>
                </mxCell>
                <mxCell id="17" value="return &quot;This is a &lt;br&gt;scalene triangle.&quot;" style="shape=parallelogram;html=1;strokeWidth=2;perimeter=parallelogramPerimeter;whiteSpace=wrap;rounded=1;arcSize=12;size=0.23;labelBackgroundColor=none;fontFamily=Helvetica;fontSize=11;" parent="1" vertex="1">
                    <mxGeometry x="820" y="370" width="170" height="90" as="geometry"/>
                </mxCell>
                <mxCell id="20" value="Stop" style="strokeWidth=2;html=1;shape=mxgraph.flowchart.terminator;whiteSpace=wrap;" parent="1" vertex="1">
                    <mxGeometry x="110" y="490" width="100" height="60" as="geometry"/>
                </mxCell>
                <mxCell id="29" value="" style="edgeStyle=none;rounded=0;html=1;" parent="1" source="27" target="28" edge="1">
                    <mxGeometry relative="1" as="geometry"/>
                </mxCell>
                <mxCell id="27" value="Start" style="strokeWidth=2;html=1;shape=mxgraph.flowchart.terminator;whiteSpace=wrap;" parent="1" vertex="1">
                    <mxGeometry x="110" y="600" width="100" height="60" as="geometry"/>
                </mxCell>
                <mxCell id="31" value="" style="edgeStyle=none;rounded=0;html=1;fontFamily=Helvetica;" parent="1" source="28" target="30" edge="1">
                    <mxGeometry relative="1" as="geometry"/>
                </mxCell>
                <mxCell id="28" value="let perimeter = 0" style="shape=parallelogram;html=1;strokeWidth=2;perimeter=parallelogramPerimeter;whiteSpace=wrap;rounded=1;arcSize=12;size=0.23;labelBackgroundColor=none;fontFamily=Helvetica;fontSize=11;" parent="1" vertex="1">
                    <mxGeometry x="72.5" y="690" width="175" height="80" as="geometry"/>
                </mxCell>
                <mxCell id="33" value="" style="edgeStyle=none;rounded=0;html=1;fontFamily=Helvetica;" parent="1" source="30" target="32" edge="1">
                    <mxGeometry relative="1" as="geometry"/>
                </mxCell>
                <mxCell id="30" value="&lt;font color=&quot;#000000&quot;&gt;&lt;br&gt;return perimeter =&amp;nbsp;&lt;br&gt;&lt;/font&gt;&lt;pre style=&quot;overflow-wrap: break-word&quot;&gt;&lt;font face=&quot;Helvetica&quot; color=&quot;#000000&quot;&gt;this.sideA + this.sideB + &lt;/font&gt;&lt;/pre&gt;&lt;pre style=&quot;overflow-wrap: break-word&quot;&gt;&lt;font face=&quot;Helvetica&quot; color=&quot;#000000&quot;&gt;this.sideC&lt;/font&gt;&lt;/pre&gt;" style="shape=parallelogram;html=1;strokeWidth=2;perimeter=parallelogramPerimeter;whiteSpace=wrap;rounded=1;arcSize=12;size=0.23;labelBackgroundColor=none;fontFamily=Helvetica;fontSize=11;" parent="1" vertex="1">
                    <mxGeometry x="72.5" y="800" width="175" height="80" as="geometry"/>
                </mxCell>
                <mxCell id="32" value="Stop" style="strokeWidth=2;html=1;shape=mxgraph.flowchart.terminator;whiteSpace=wrap;" parent="1" vertex="1">
                    <mxGeometry x="110" y="910" width="100" height="60" as="geometry"/>
                </mxCell>
                <mxCell id="34" value="" style="edgeStyle=none;rounded=0;html=1;" parent="1" source="35" target="37" edge="1">
                    <mxGeometry relative="1" as="geometry"/>
                </mxCell>
                <mxCell id="35" value="Start" style="strokeWidth=2;html=1;shape=mxgraph.flowchart.terminator;whiteSpace=wrap;" parent="1" vertex="1">
                    <mxGeometry x="307.5" y="600" width="100" height="60" as="geometry"/>
                </mxCell>
                <mxCell id="36" value="" style="edgeStyle=none;rounded=0;html=1;fontFamily=Helvetica;" parent="1" source="37" target="39" edge="1">
                    <mxGeometry relative="1" as="geometry"/>
                </mxCell>
                <mxCell id="37" value="let semiperimeter = 0" style="shape=parallelogram;html=1;strokeWidth=2;perimeter=parallelogramPerimeter;whiteSpace=wrap;rounded=1;arcSize=12;size=0.23;labelBackgroundColor=none;fontFamily=Helvetica;fontSize=11;" parent="1" vertex="1">
                    <mxGeometry x="270" y="690" width="175" height="80" as="geometry"/>
                </mxCell>
                <mxCell id="38" value="" style="edgeStyle=none;rounded=0;html=1;fontFamily=Helvetica;" parent="1" source="39" target="40" edge="1">
                    <mxGeometry relative="1" as="geometry"/>
                </mxCell>
                <mxCell id="39" value="&lt;font color=&quot;#000000&quot;&gt;&lt;br&gt;&lt;/font&gt;&lt;pre style=&quot;overflow-wrap: break-word&quot;&gt;&lt;font face=&quot;Helvetica&quot; color=&quot;#000000&quot;&gt;return semiperimeter = &lt;/font&gt;&lt;/pre&gt;&lt;pre style=&quot;overflow-wrap: break-word&quot;&gt;&lt;font face=&quot;Helvetica&quot; color=&quot;#000000&quot;&gt;(this.sideA + this.sideB &lt;/font&gt;&lt;/pre&gt;&lt;pre style=&quot;overflow-wrap: break-word&quot;&gt;&lt;font face=&quot;Helvetica&quot; color=&quot;#000000&quot;&gt;+ this.sideC) / 2&lt;/font&gt;&lt;/pre&gt;" style="shape=parallelogram;html=1;strokeWidth=2;perimeter=parallelogramPerimeter;whiteSpace=wrap;rounded=1;arcSize=12;size=0.23;labelBackgroundColor=none;fontFamily=Helvetica;fontSize=11;" parent="1" vertex="1">
                    <mxGeometry x="270" y="800" width="175" height="80" as="geometry"/>
                </mxCell>
                <mxCell id="40" value="Stop" style="strokeWidth=2;html=1;shape=mxgraph.flowchart.terminator;whiteSpace=wrap;" parent="1" vertex="1">
                    <mxGeometry x="307.5" y="910" width="100" height="60" as="geometry"/>
                </mxCell>
                <mxCell id="41" value="" style="edgeStyle=none;rounded=0;html=1;" parent="1" source="42" target="44" edge="1">
                    <mxGeometry relative="1" as="geometry"/>
                </mxCell>
                <mxCell id="42" value="Start" style="strokeWidth=2;html=1;shape=mxgraph.flowchart.terminator;whiteSpace=wrap;" parent="1" vertex="1">
                    <mxGeometry x="510" y="600" width="100" height="60" as="geometry"/>
                </mxCell>
                <mxCell id="48" value="" style="edgeStyle=none;rounded=0;html=1;fontFamily=Helvetica;fontSize=10;" parent="1" source="44" target="46" edge="1">
                    <mxGeometry relative="1" as="geometry"/>
                </mxCell>
                <mxCell id="44" value="let area = 0" style="shape=parallelogram;html=1;strokeWidth=2;perimeter=parallelogramPerimeter;whiteSpace=wrap;rounded=1;arcSize=12;size=0.23;labelBackgroundColor=none;fontFamily=Helvetica;fontSize=11;" parent="1" vertex="1">
                    <mxGeometry x="472.5" y="690" width="175" height="80" as="geometry"/>
                </mxCell>
                <mxCell id="49" value="" style="edgeStyle=none;rounded=0;html=1;fontFamily=Helvetica;fontSize=10;" parent="1" source="46" target="47" edge="1">
                    <mxGeometry relative="1" as="geometry"/>
                </mxCell>
                <mxCell id="46" value="&lt;pre style=&quot;overflow-wrap: break-word ; font-size: 10px&quot;&gt;&lt;font face=&quot;Helvetica&quot; style=&quot;font-size: 10px&quot; color=&quot;#000000&quot;&gt; return area = Math.sqrt(&lt;br&gt;      this.triangleSemiperimeter() *&lt;br&gt;        (this.triangleSemiperimeter() - this.sideA) *        &lt;/font&gt;&lt;/pre&gt;&lt;pre style=&quot;overflow-wrap: break-word ; font-size: 10px&quot;&gt;&lt;font face=&quot;Helvetica&quot; style=&quot;font-size: 10px&quot; color=&quot;#000000&quot;&gt;(this.triangleSemiperimeter() - this.sideB) *&lt;br&gt;        (this.triangleSemiperimeter() - &lt;/font&gt;&lt;/pre&gt;&lt;pre style=&quot;overflow-wrap: break-word ; font-size: 10px&quot;&gt;&lt;font face=&quot;Helvetica&quot; style=&quot;font-size: 10px&quot; color=&quot;#000000&quot;&gt;this.sideC)&lt;/font&gt;&lt;/pre&gt;" style="shape=parallelogram;html=1;strokeWidth=2;perimeter=parallelogramPerimeter;whiteSpace=wrap;rounded=1;arcSize=12;size=0.23;labelBackgroundColor=none;fontFamily=Helvetica;fontSize=11;" parent="1" vertex="1">
                    <mxGeometry x="426.25" y="800" width="267.5" height="110" as="geometry"/>
                </mxCell>
                <mxCell id="47" value="Stop" style="strokeWidth=2;html=1;shape=mxgraph.flowchart.terminator;whiteSpace=wrap;" parent="1" vertex="1">
                    <mxGeometry x="510" y="940" width="100" height="60" as="geometry"/>
                </mxCell>
                <mxCell id="51" value="" style="edgeStyle=none;rounded=0;html=1;" parent="1" source="52" target="54" edge="1">
                    <mxGeometry relative="1" as="geometry"/>
                </mxCell>
                <mxCell id="52" value="Start" style="strokeWidth=2;html=1;shape=mxgraph.flowchart.terminator;whiteSpace=wrap;" parent="1" vertex="1">
                    <mxGeometry x="717.5" y="600" width="100" height="60" as="geometry"/>
                </mxCell>
                <mxCell id="60" value="" style="edgeStyle=none;rounded=0;html=1;fontFamily=Helvetica;fontSize=10;" parent="1" source="54" target="59" edge="1">
                    <mxGeometry relative="1" as="geometry"/>
                </mxCell>
                <mxCell id="54" value="let angleA = 0" style="shape=parallelogram;html=1;strokeWidth=2;perimeter=parallelogramPerimeter;whiteSpace=wrap;rounded=1;arcSize=12;size=0.23;labelBackgroundColor=none;fontFamily=Helvetica;fontSize=11;" parent="1" vertex="1">
                    <mxGeometry x="707.5" y="690" width="120" height="60" as="geometry"/>
                </mxCell>
                <mxCell id="57" value="Stop" style="strokeWidth=2;html=1;shape=mxgraph.flowchart.terminator;whiteSpace=wrap;" parent="1" vertex="1">
                    <mxGeometry x="717.5" y="1050" width="100" height="60" as="geometry"/>
                </mxCell>
                <mxCell id="62" value="" style="edgeStyle=none;rounded=0;html=1;fontFamily=Helvetica;fontSize=10;" parent="1" source="59" target="61" edge="1">
                    <mxGeometry relative="1" as="geometry"/>
                </mxCell>
                <mxCell id="59" value="let pi = 3.14" style="shape=parallelogram;html=1;strokeWidth=2;perimeter=parallelogramPerimeter;whiteSpace=wrap;rounded=1;arcSize=12;size=0.23;labelBackgroundColor=none;fontFamily=Helvetica;fontSize=11;" parent="1" vertex="1">
                    <mxGeometry x="707.5" y="770" width="120" height="60" as="geometry"/>
                </mxCell>
                <mxCell id="64" value="" style="edgeStyle=none;html=1;fontFamily=Helvetica;" parent="1" source="61" target="63" edge="1">
                    <mxGeometry relative="1" as="geometry"/>
                </mxCell>
                <mxCell id="61" value="let degree = 180" style="shape=parallelogram;html=1;strokeWidth=2;perimeter=parallelogramPerimeter;whiteSpace=wrap;rounded=1;arcSize=12;size=0.23;labelBackgroundColor=none;fontFamily=Helvetica;fontSize=11;" parent="1" vertex="1">
                    <mxGeometry x="707.5" y="850" width="120" height="60" as="geometry"/>
                </mxCell>
                <mxCell id="65" value="" style="edgeStyle=none;html=1;fontFamily=Helvetica;" parent="1" source="63" target="57" edge="1">
                    <mxGeometry relative="1" as="geometry"/>
                </mxCell>
                <mxCell id="63" value="&lt;pre style=&quot;overflow-wrap: break-word ; font-size: 10px&quot;&gt;&lt;pre style=&quot;overflow-wrap: break-word&quot;&gt;&lt;font face=&quot;Helvetica&quot; color=&quot;#000000&quot;&gt;return angleA =&lt;br&gt;      Math.acos((this.sideB ** 2 + &lt;/font&gt;&lt;/pre&gt;&lt;pre style=&quot;overflow-wrap: break-word&quot;&gt;&lt;font face=&quot;Helvetica&quot; color=&quot;#000000&quot;&gt;this.sideC ** 2 - this.sideA ** 2) &lt;/font&gt;&lt;/pre&gt;&lt;pre style=&quot;overflow-wrap: break-word&quot;&gt;&lt;font face=&quot;Helvetica&quot; color=&quot;#000000&quot;&gt;/ (2 * this.sideB * this.sideC)) *&lt;br&gt;      (degree / pi)&lt;/font&gt;&lt;/pre&gt;&lt;/pre&gt;" style="shape=parallelogram;html=1;strokeWidth=2;perimeter=parallelogramPerimeter;whiteSpace=wrap;rounded=1;arcSize=12;size=0.23;labelBackgroundColor=none;fontFamily=Helvetica;fontSize=11;" parent="1" vertex="1">
                    <mxGeometry x="656.25" y="930" width="222.5" height="100" as="geometry"/>
                </mxCell>
                <mxCell id="66" value="" style="edgeStyle=none;rounded=0;html=1;" parent="1" source="67" target="69" edge="1">
                    <mxGeometry relative="1" as="geometry"/>
                </mxCell>
                <mxCell id="67" value="Start" style="strokeWidth=2;html=1;shape=mxgraph.flowchart.terminator;whiteSpace=wrap;" parent="1" vertex="1">
                    <mxGeometry x="921.25" y="600" width="100" height="60" as="geometry"/>
                </mxCell>
                <mxCell id="68" value="" style="edgeStyle=none;rounded=0;html=1;fontFamily=Helvetica;fontSize=10;" parent="1" source="69" target="72" edge="1">
                    <mxGeometry relative="1" as="geometry"/>
                </mxCell>
                <mxCell id="69" value="let angleB = 0" style="shape=parallelogram;html=1;strokeWidth=2;perimeter=parallelogramPerimeter;whiteSpace=wrap;rounded=1;arcSize=12;size=0.23;labelBackgroundColor=none;fontFamily=Helvetica;fontSize=11;" parent="1" vertex="1">
                    <mxGeometry x="911.25" y="690" width="120" height="60" as="geometry"/>
                </mxCell>
                <mxCell id="70" value="Stop" style="strokeWidth=2;html=1;shape=mxgraph.flowchart.terminator;whiteSpace=wrap;" parent="1" vertex="1">
                    <mxGeometry x="921.25" y="1050" width="100" height="60" as="geometry"/>
                </mxCell>
                <mxCell id="71" value="" style="edgeStyle=none;rounded=0;html=1;fontFamily=Helvetica;fontSize=10;" parent="1" source="72" target="74" edge="1">
                    <mxGeometry relative="1" as="geometry"/>
                </mxCell>
                <mxCell id="72" value="let pi = 3.14" style="shape=parallelogram;html=1;strokeWidth=2;perimeter=parallelogramPerimeter;whiteSpace=wrap;rounded=1;arcSize=12;size=0.23;labelBackgroundColor=none;fontFamily=Helvetica;fontSize=11;" parent="1" vertex="1">
                    <mxGeometry x="911.25" y="770" width="120" height="60" as="geometry"/>
                </mxCell>
                <mxCell id="73" value="" style="edgeStyle=none;html=1;fontFamily=Helvetica;" parent="1" source="74" target="76" edge="1">
                    <mxGeometry relative="1" as="geometry"/>
                </mxCell>
                <mxCell id="74" value="let degree = 180" style="shape=parallelogram;html=1;strokeWidth=2;perimeter=parallelogramPerimeter;whiteSpace=wrap;rounded=1;arcSize=12;size=0.23;labelBackgroundColor=none;fontFamily=Helvetica;fontSize=11;" parent="1" vertex="1">
                    <mxGeometry x="911.25" y="850" width="120" height="60" as="geometry"/>
                </mxCell>
                <mxCell id="75" value="" style="edgeStyle=none;html=1;fontFamily=Helvetica;" parent="1" source="76" target="70" edge="1">
                    <mxGeometry relative="1" as="geometry"/>
                </mxCell>
                <mxCell id="76" value="&lt;pre style=&quot;overflow-wrap: break-word ; font-size: 10px&quot;&gt;&lt;pre style=&quot;overflow-wrap: break-word&quot;&gt;&lt;font face=&quot;Helvetica&quot; color=&quot;#000000&quot;&gt;return angleB =&lt;br&gt;      Math.acos((this.sideB ** 2 + &lt;/font&gt;&lt;/pre&gt;&lt;pre style=&quot;overflow-wrap: break-word&quot;&gt;&lt;font face=&quot;Helvetica&quot; color=&quot;#000000&quot;&gt;this.sideC ** 2 - this.sideA ** 2) &lt;/font&gt;&lt;/pre&gt;&lt;pre style=&quot;overflow-wrap: break-word&quot;&gt;&lt;font face=&quot;Helvetica&quot; color=&quot;#000000&quot;&gt;/ (2 * this.sideA * this.sideC)) *&lt;br&gt;      (degree / pi)&lt;/font&gt;&lt;/pre&gt;&lt;/pre&gt;" style="shape=parallelogram;html=1;strokeWidth=2;perimeter=parallelogramPerimeter;whiteSpace=wrap;rounded=1;arcSize=12;size=0.23;labelBackgroundColor=none;fontFamily=Helvetica;fontSize=11;" parent="1" vertex="1">
                    <mxGeometry x="860" y="930" width="222.5" height="100" as="geometry"/>
                </mxCell>
                <mxCell id="77" value="" style="edgeStyle=none;rounded=0;html=1;" parent="1" source="78" target="80" edge="1">
                    <mxGeometry relative="1" as="geometry"/>
                </mxCell>
                <mxCell id="78" value="Start" style="strokeWidth=2;html=1;shape=mxgraph.flowchart.terminator;whiteSpace=wrap;" parent="1" vertex="1">
                    <mxGeometry x="1131.25" y="600" width="100" height="60" as="geometry"/>
                </mxCell>
                <mxCell id="79" value="" style="edgeStyle=none;rounded=0;html=1;fontFamily=Helvetica;fontSize=10;" parent="1" source="80" target="83" edge="1">
                    <mxGeometry relative="1" as="geometry"/>
                </mxCell>
                <mxCell id="80" value="let angleC = 0" style="shape=parallelogram;html=1;strokeWidth=2;perimeter=parallelogramPerimeter;whiteSpace=wrap;rounded=1;arcSize=12;size=0.23;labelBackgroundColor=none;fontFamily=Helvetica;fontSize=11;" parent="1" vertex="1">
                    <mxGeometry x="1121.25" y="690" width="120" height="60" as="geometry"/>
                </mxCell>
                <mxCell id="81" value="Stop" style="strokeWidth=2;html=1;shape=mxgraph.flowchart.terminator;whiteSpace=wrap;" parent="1" vertex="1">
                    <mxGeometry x="1131.25" y="1050" width="100" height="60" as="geometry"/>
                </mxCell>
                <mxCell id="82" value="" style="edgeStyle=none;rounded=0;html=1;fontFamily=Helvetica;fontSize=10;" parent="1" source="83" target="85" edge="1">
                    <mxGeometry relative="1" as="geometry"/>
                </mxCell>
                <mxCell id="83" value="let pi = 3.14" style="shape=parallelogram;html=1;strokeWidth=2;perimeter=parallelogramPerimeter;whiteSpace=wrap;rounded=1;arcSize=12;size=0.23;labelBackgroundColor=none;fontFamily=Helvetica;fontSize=11;" parent="1" vertex="1">
                    <mxGeometry x="1121.25" y="770" width="120" height="60" as="geometry"/>
                </mxCell>
                <mxCell id="84" value="" style="edgeStyle=none;html=1;fontFamily=Helvetica;" parent="1" source="85" target="87" edge="1">
                    <mxGeometry relative="1" as="geometry"/>
                </mxCell>
                <mxCell id="85" value="let degree = 180" style="shape=parallelogram;html=1;strokeWidth=2;perimeter=parallelogramPerimeter;whiteSpace=wrap;rounded=1;arcSize=12;size=0.23;labelBackgroundColor=none;fontFamily=Helvetica;fontSize=11;" parent="1" vertex="1">
                    <mxGeometry x="1121.25" y="850" width="120" height="60" as="geometry"/>
                </mxCell>
                <mxCell id="86" value="" style="edgeStyle=none;html=1;fontFamily=Helvetica;" parent="1" source="87" target="81" edge="1">
                    <mxGeometry relative="1" as="geometry"/>
                </mxCell>
                <mxCell id="87" value="&lt;pre style=&quot;overflow-wrap: break-word ; font-size: 10px&quot;&gt;&lt;pre style=&quot;overflow-wrap: break-word&quot;&gt;&lt;font face=&quot;Helvetica&quot; color=&quot;#000000&quot;&gt;return angleC =&lt;br&gt;      Math.acos((this.sideB ** 2 + &lt;/font&gt;&lt;/pre&gt;&lt;pre style=&quot;overflow-wrap: break-word&quot;&gt;&lt;font face=&quot;Helvetica&quot; color=&quot;#000000&quot;&gt;this.sideC ** 2 - this.sideA ** 2) &lt;/font&gt;&lt;/pre&gt;&lt;pre style=&quot;overflow-wrap: break-word&quot;&gt;&lt;font face=&quot;Helvetica&quot; color=&quot;#000000&quot;&gt;/ (2 * this.sideA * this.sideB)) *&lt;br&gt;      (degree / pi)&lt;/font&gt;&lt;/pre&gt;&lt;/pre&gt;" style="shape=parallelogram;html=1;strokeWidth=2;perimeter=parallelogramPerimeter;whiteSpace=wrap;rounded=1;arcSize=12;size=0.23;labelBackgroundColor=none;fontFamily=Helvetica;fontSize=11;" parent="1" vertex="1">
                    <mxGeometry x="1070" y="930" width="222.5" height="100" as="geometry"/>
                </mxCell>
                <mxCell id="99" value="" style="edgeStyle=none;html=1;fontFamily=Helvetica;" parent="1" source="89" target="98" edge="1">
                    <mxGeometry relative="1" as="geometry"/>
                </mxCell>
                <mxCell id="89" value="Start" style="strokeWidth=2;html=1;shape=mxgraph.flowchart.terminator;whiteSpace=wrap;" parent="1" vertex="1">
                    <mxGeometry x="110" y="1000" width="100" height="60" as="geometry"/>
                </mxCell>
                <mxCell id="90" value="" style="edgeStyle=none;rounded=0;html=1;fontFamily=Helvetica;fontSize=10;" parent="1" source="91" edge="1">
                    <mxGeometry relative="1" as="geometry">
                        <mxPoint x="160" y="1170" as="targetPoint"/>
                    </mxGeometry>
                </mxCell>
                <mxCell id="91" value="let heightA = 0" style="shape=parallelogram;html=1;strokeWidth=2;perimeter=parallelogramPerimeter;whiteSpace=wrap;rounded=1;arcSize=12;size=0.23;labelBackgroundColor=none;fontFamily=Helvetica;fontSize=11;" parent="1" vertex="1">
                    <mxGeometry x="100" y="1090" width="120" height="60" as="geometry"/>
                </mxCell>
                <mxCell id="92" value="Stop" style="strokeWidth=2;html=1;shape=mxgraph.flowchart.terminator;whiteSpace=wrap;" parent="1" vertex="1">
                    <mxGeometry x="110" y="1280" width="100" height="60" as="geometry"/>
                </mxCell>
                <mxCell id="97" value="" style="edgeStyle=none;html=1;fontFamily=Helvetica;" parent="1" source="98" target="92" edge="1">
                    <mxGeometry relative="1" as="geometry"/>
                </mxCell>
                <mxCell id="98" value="&lt;pre style=&quot;overflow-wrap: break-word ; font-size: 10px&quot;&gt;&lt;pre style=&quot;overflow-wrap: break-word&quot;&gt;&lt;pre style=&quot;overflow-wrap: break-word&quot;&gt;&lt;font face=&quot;Helvetica&quot; color=&quot;#000000&quot;&gt;    return heightA = (2 * &lt;/font&gt;&lt;/pre&gt;&lt;pre style=&quot;overflow-wrap: break-word&quot;&gt;&lt;font face=&quot;Helvetica&quot; color=&quot;#000000&quot;&gt;this.triangleArea()) / this.sideA&lt;/font&gt;&lt;/pre&gt;&lt;div style=&quot;color: rgb(255 , 255 , 255)&quot;&gt;&lt;br&gt;&lt;/div&gt;&lt;/pre&gt;&lt;/pre&gt;" style="shape=parallelogram;html=1;strokeWidth=2;perimeter=parallelogramPerimeter;whiteSpace=wrap;rounded=1;arcSize=12;size=0.23;labelBackgroundColor=none;fontFamily=Helvetica;fontSize=11;" parent="1" vertex="1">
                    <mxGeometry x="29.38" y="1170" width="261.25" height="80" as="geometry"/>
                </mxCell>
                <mxCell id="100" value="" style="edgeStyle=none;html=1;fontFamily=Helvetica;" parent="1" source="101" target="106" edge="1">
                    <mxGeometry relative="1" as="geometry"/>
                </mxCell>
                <mxCell id="101" value="Start" style="strokeWidth=2;html=1;shape=mxgraph.flowchart.terminator;whiteSpace=wrap;" parent="1" vertex="1">
                    <mxGeometry x="334.99" y="1000" width="100" height="60" as="geometry"/>
                </mxCell>
                <mxCell id="102" value="" style="edgeStyle=none;rounded=0;html=1;fontFamily=Helvetica;fontSize=10;" parent="1" source="103" edge="1">
                    <mxGeometry relative="1" as="geometry">
                        <mxPoint x="384.99" y="1170" as="targetPoint"/>
                    </mxGeometry>
                </mxCell>
                <mxCell id="103" value="let heightB = 0" style="shape=parallelogram;html=1;strokeWidth=2;perimeter=parallelogramPerimeter;whiteSpace=wrap;rounded=1;arcSize=12;size=0.23;labelBackgroundColor=none;fontFamily=Helvetica;fontSize=11;" parent="1" vertex="1">
                    <mxGeometry x="324.99" y="1090" width="120" height="60" as="geometry"/>
                </mxCell>
                <mxCell id="104" value="Stop" style="strokeWidth=2;html=1;shape=mxgraph.flowchart.terminator;whiteSpace=wrap;" parent="1" vertex="1">
                    <mxGeometry x="334.99" y="1280" width="100" height="60" as="geometry"/>
                </mxCell>
                <mxCell id="105" value="" style="edgeStyle=none;html=1;fontFamily=Helvetica;" parent="1" source="106" target="104" edge="1">
                    <mxGeometry relative="1" as="geometry"/>
                </mxCell>
                <mxCell id="106" value="&lt;pre style=&quot;overflow-wrap: break-word ; font-size: 10px&quot;&gt;&lt;pre style=&quot;overflow-wrap: break-word&quot;&gt;&lt;pre style=&quot;overflow-wrap: break-word&quot;&gt;&lt;font face=&quot;Helvetica&quot; color=&quot;#000000&quot;&gt;    return heightA = (2 * &lt;/font&gt;&lt;/pre&gt;&lt;pre style=&quot;overflow-wrap: break-word&quot;&gt;&lt;font face=&quot;Helvetica&quot; color=&quot;#000000&quot;&gt;this.triangleArea()) / this.sideB&lt;/font&gt;&lt;/pre&gt;&lt;div style=&quot;color: rgb(255 , 255 , 255)&quot;&gt;&lt;br&gt;&lt;/div&gt;&lt;/pre&gt;&lt;/pre&gt;" style="shape=parallelogram;html=1;strokeWidth=2;perimeter=parallelogramPerimeter;whiteSpace=wrap;rounded=1;arcSize=12;size=0.23;labelBackgroundColor=none;fontFamily=Helvetica;fontSize=11;" parent="1" vertex="1">
                    <mxGeometry x="254.37" y="1170" width="261.25" height="80" as="geometry"/>
                </mxCell>
                <mxCell id="107" value="" style="edgeStyle=none;html=1;fontFamily=Helvetica;" parent="1" source="108" target="113" edge="1">
                    <mxGeometry relative="1" as="geometry"/>
                </mxCell>
                <mxCell id="108" value="Start" style="strokeWidth=2;html=1;shape=mxgraph.flowchart.terminator;whiteSpace=wrap;" parent="1" vertex="1">
                    <mxGeometry x="553.12" y="1040" width="100" height="60" as="geometry"/>
                </mxCell>
                <mxCell id="109" value="" style="edgeStyle=none;rounded=0;html=1;fontFamily=Helvetica;fontSize=10;" parent="1" source="110" edge="1">
                    <mxGeometry relative="1" as="geometry">
                        <mxPoint x="603.12" y="1210" as="targetPoint"/>
                    </mxGeometry>
                </mxCell>
                <mxCell id="110" value="let heightC = 0" style="shape=parallelogram;html=1;strokeWidth=2;perimeter=parallelogramPerimeter;whiteSpace=wrap;rounded=1;arcSize=12;size=0.23;labelBackgroundColor=none;fontFamily=Helvetica;fontSize=11;" parent="1" vertex="1">
                    <mxGeometry x="543.12" y="1130" width="120" height="60" as="geometry"/>
                </mxCell>
                <mxCell id="111" value="Stop" style="strokeWidth=2;html=1;shape=mxgraph.flowchart.terminator;whiteSpace=wrap;" parent="1" vertex="1">
                    <mxGeometry x="553.12" y="1320" width="100" height="60" as="geometry"/>
                </mxCell>
                <mxCell id="112" value="" style="edgeStyle=none;html=1;fontFamily=Helvetica;" parent="1" source="113" target="111" edge="1">
                    <mxGeometry relative="1" as="geometry"/>
                </mxCell>
                <mxCell id="113" value="&lt;pre style=&quot;overflow-wrap: break-word ; font-size: 10px&quot;&gt;&lt;pre style=&quot;overflow-wrap: break-word&quot;&gt;&lt;pre style=&quot;overflow-wrap: break-word&quot;&gt;&lt;font face=&quot;Helvetica&quot; color=&quot;#000000&quot;&gt;    return heightC = (2 * &lt;/font&gt;&lt;/pre&gt;&lt;pre style=&quot;overflow-wrap: break-word&quot;&gt;&lt;font face=&quot;Helvetica&quot; color=&quot;#000000&quot;&gt;this.triangleArea()) / this.sideC&lt;/font&gt;&lt;/pre&gt;&lt;div style=&quot;color: rgb(255 , 255 , 255)&quot;&gt;&lt;br&gt;&lt;/div&gt;&lt;/pre&gt;&lt;/pre&gt;" style="shape=parallelogram;html=1;strokeWidth=2;perimeter=parallelogramPerimeter;whiteSpace=wrap;rounded=1;arcSize=12;size=0.23;labelBackgroundColor=none;fontFamily=Helvetica;fontSize=11;" parent="1" vertex="1">
                    <mxGeometry x="472.5" y="1210" width="261.25" height="80" as="geometry"/>
                </mxCell>
                <mxCell id="121" value="" style="edgeStyle=none;html=1;fontFamily=Helvetica;" parent="1" source="115" target="120" edge="1">
                    <mxGeometry relative="1" as="geometry"/>
                </mxCell>
                <mxCell id="115" value="Start" style="strokeWidth=2;html=1;shape=mxgraph.flowchart.terminator;whiteSpace=wrap;" parent="1" vertex="1">
                    <mxGeometry x="820.62" y="1120" width="100" height="60" as="geometry"/>
                </mxCell>
                <mxCell id="116" value="" style="edgeStyle=none;rounded=0;html=1;fontFamily=Helvetica;fontSize=10;" parent="1" source="117" edge="1">
                    <mxGeometry relative="1" as="geometry">
                        <mxPoint x="870.62" y="1290" as="targetPoint"/>
                    </mxGeometry>
                </mxCell>
                <mxCell id="117" value="let inradius = 0" style="shape=parallelogram;html=1;strokeWidth=2;perimeter=parallelogramPerimeter;whiteSpace=wrap;rounded=1;arcSize=12;size=0.23;labelBackgroundColor=none;fontFamily=Helvetica;fontSize=11;" parent="1" vertex="1">
                    <mxGeometry x="810.62" y="1200" width="120" height="60" as="geometry"/>
                </mxCell>
                <mxCell id="122" style="edgeStyle=none;html=1;exitX=0.5;exitY=0;exitDx=0;exitDy=0;exitPerimeter=0;fontFamily=Helvetica;" parent="1" source="118" edge="1">
                    <mxGeometry relative="1" as="geometry">
                        <mxPoint x="871" y="1390" as="targetPoint"/>
                    </mxGeometry>
                </mxCell>
                <mxCell id="118" value="Stop" style="strokeWidth=2;html=1;shape=mxgraph.flowchart.terminator;whiteSpace=wrap;" parent="1" vertex="1">
                    <mxGeometry x="820.62" y="1360" width="100" height="60" as="geometry"/>
                </mxCell>
                <mxCell id="119" value="" style="edgeStyle=none;html=1;fontFamily=Helvetica;" parent="1" source="120" target="118" edge="1">
                    <mxGeometry relative="1" as="geometry"/>
                </mxCell>
                <mxCell id="120" value="&lt;pre style=&quot;overflow-wrap: break-word ; font-size: 10px&quot;&gt;&lt;pre style=&quot;overflow-wrap: break-word&quot;&gt;&lt;pre style=&quot;overflow-wrap: break-word&quot;&gt;&lt;pre style=&quot;overflow-wrap: break-word&quot;&gt;&lt;font face=&quot;Helvetica&quot; color=&quot;#000000&quot;&gt;return inradius = this.triangleArea()&lt;/font&gt;&lt;/pre&gt;&lt;pre style=&quot;overflow-wrap: break-word&quot;&gt;&lt;font face=&quot;Helvetica&quot; color=&quot;#000000&quot;&gt; / this.triangleSemiperimeter()&lt;/font&gt;&lt;/pre&gt;&lt;/pre&gt;&lt;/pre&gt;&lt;/pre&gt;" style="shape=parallelogram;html=1;strokeWidth=2;perimeter=parallelogramPerimeter;whiteSpace=wrap;rounded=1;arcSize=12;size=0.23;labelBackgroundColor=none;fontFamily=Helvetica;fontSize=11;" parent="1" vertex="1">
                    <mxGeometry x="739.99" y="1280" width="261.25" height="60" as="geometry"/>
                </mxCell>
                <mxCell id="123" value="" style="edgeStyle=none;rounded=0;html=1;" parent="1" source="124" target="126" edge="1">
                    <mxGeometry relative="1" as="geometry"/>
                </mxCell>
                <mxCell id="124" value="Start" style="strokeWidth=2;html=1;shape=mxgraph.flowchart.terminator;whiteSpace=wrap;" parent="1" vertex="1">
                    <mxGeometry x="1031.25" y="1110" width="100" height="60" as="geometry"/>
                </mxCell>
                <mxCell id="125" value="" style="edgeStyle=none;rounded=0;html=1;fontFamily=Helvetica;fontSize=10;" parent="1" source="126" target="129" edge="1">
                    <mxGeometry relative="1" as="geometry"/>
                </mxCell>
                <mxCell id="126" value="let circumradius = 0" style="shape=parallelogram;html=1;strokeWidth=2;perimeter=parallelogramPerimeter;whiteSpace=wrap;rounded=1;arcSize=12;size=0.23;labelBackgroundColor=none;fontFamily=Helvetica;fontSize=11;" parent="1" vertex="1">
                    <mxGeometry x="1011.88" y="1200" width="138.75" height="60" as="geometry"/>
                </mxCell>
                <mxCell id="128" value="" style="edgeStyle=none;rounded=0;html=1;fontFamily=Helvetica;fontSize=10;" parent="1" source="129" target="131" edge="1">
                    <mxGeometry relative="1" as="geometry"/>
                </mxCell>
                <mxCell id="129" value="let pi = 3.14" style="shape=parallelogram;html=1;strokeWidth=2;perimeter=parallelogramPerimeter;whiteSpace=wrap;rounded=1;arcSize=12;size=0.23;labelBackgroundColor=none;fontFamily=Helvetica;fontSize=11;" parent="1" vertex="1">
                    <mxGeometry x="1021.25" y="1280" width="120" height="60" as="geometry"/>
                </mxCell>
                <mxCell id="130" value="" style="edgeStyle=none;html=1;fontFamily=Helvetica;" parent="1" source="131" target="133" edge="1">
                    <mxGeometry relative="1" as="geometry"/>
                </mxCell>
                <mxCell id="131" value="let circleArea = 0" style="shape=parallelogram;html=1;strokeWidth=2;perimeter=parallelogramPerimeter;whiteSpace=wrap;rounded=1;arcSize=12;size=0.23;labelBackgroundColor=none;fontFamily=Helvetica;fontSize=11;" parent="1" vertex="1">
                    <mxGeometry x="1021.25" y="1360" width="120" height="60" as="geometry"/>
                </mxCell>
                <mxCell id="135" value="" style="edgeStyle=none;html=1;fontFamily=Helvetica;" parent="1" source="133" target="134" edge="1">
                    <mxGeometry relative="1" as="geometry"/>
                </mxCell>
                <mxCell id="133" value="&lt;pre style=&quot;overflow-wrap: break-word ; font-size: 10px&quot;&gt;&lt;pre style=&quot;overflow-wrap: break-word&quot;&gt;&lt;pre style=&quot;overflow-wrap: break-word&quot;&gt;&lt;font color=&quot;#000000&quot;&gt;&lt;span style=&quot;font-family: &amp;#34;helvetica&amp;#34; ; white-space: normal&quot;&gt;circumradius = (this.sideA * this.sideB *&amp;nbsp;&lt;/span&gt;&lt;br&gt;&lt;/font&gt;&lt;/pre&gt;&lt;pre style=&quot;overflow-wrap: break-word&quot;&gt;&lt;font color=&quot;#000000&quot;&gt;&lt;font face=&quot;Helvetica&quot;&gt;         this.sideC) / (4 * &lt;/font&gt;this.incircleRadius() &lt;/font&gt;&lt;/pre&gt;&lt;pre style=&quot;overflow-wrap: break-word&quot;&gt;&lt;font color=&quot;#000000&quot;&gt;* this.triangleSemiperimeter())&lt;/font&gt;&lt;/pre&gt;&lt;/pre&gt;&lt;/pre&gt;" style="shape=parallelogram;html=1;strokeWidth=2;perimeter=parallelogramPerimeter;whiteSpace=wrap;rounded=1;arcSize=12;size=0.23;labelBackgroundColor=none;fontFamily=Helvetica;fontSize=11;" parent="1" vertex="1">
                    <mxGeometry x="940.62" y="1440" width="281.26" height="100" as="geometry"/>
                </mxCell>
                <mxCell id="137" value="" style="edgeStyle=none;html=1;fontFamily=Helvetica;" parent="1" source="134" target="136" edge="1">
                    <mxGeometry relative="1" as="geometry"/>
                </mxCell>
                <mxCell id="134" value="&lt;pre style=&quot;overflow-wrap: break-word&quot;&gt;&lt;font face=&quot;Helvetica&quot; color=&quot;#000000&quot;&gt;    return circleArea = &lt;/font&gt;&lt;/pre&gt;&lt;pre style=&quot;overflow-wrap: break-word&quot;&gt;&lt;font face=&quot;Helvetica&quot; color=&quot;#000000&quot;&gt;pi * circumradius ** 2&lt;br&gt;&lt;/font&gt;&lt;/pre&gt;&lt;div&gt;&lt;br&gt;&lt;/div&gt;" style="shape=parallelogram;html=1;strokeWidth=2;perimeter=parallelogramPerimeter;whiteSpace=wrap;rounded=1;arcSize=12;size=0.23;labelBackgroundColor=none;fontFamily=Helvetica;fontSize=11;" parent="1" vertex="1">
                    <mxGeometry x="996.88" y="1560" width="168.74" height="60" as="geometry"/>
                </mxCell>
                <mxCell id="136" value="Stop" style="strokeWidth=2;html=1;shape=mxgraph.flowchart.terminator;whiteSpace=wrap;" parent="1" vertex="1">
                    <mxGeometry x="1031.26" y="1640" width="100" height="60" as="geometry"/>
                </mxCell>
                <mxCell id="138" value="Yes" style="text;html=1;resizable=0;autosize=1;align=center;verticalAlign=middle;points=[];fillColor=none;strokeColor=none;rounded=0;fontColor=#000000;" parent="1" vertex="1">
                    <mxGeometry x="160" y="320" width="40" height="20" as="geometry"/>
                </mxCell>
                <mxCell id="139" value="Yes" style="text;html=1;resizable=0;autosize=1;align=center;verticalAlign=middle;points=[];fillColor=none;strokeColor=none;rounded=0;fontColor=#000000;" parent="1" vertex="1">
                    <mxGeometry x="385" y="320" width="40" height="20" as="geometry"/>
                </mxCell>
                <mxCell id="140" value="Yes" style="text;html=1;resizable=0;autosize=1;align=center;verticalAlign=middle;points=[];fillColor=none;strokeColor=none;rounded=0;fontColor=#000000;" parent="1" vertex="1">
                    <mxGeometry x="693.75" y="365" width="40" height="20" as="geometry"/>
                </mxCell>
                <mxCell id="141" value="No" style="text;html=1;resizable=0;autosize=1;align=center;verticalAlign=middle;points=[];fillColor=none;strokeColor=none;rounded=0;fontColor=#000000;" parent="1" vertex="1">
                    <mxGeometry x="252.5" y="210" width="30" height="20" as="geometry"/>
                </mxCell>
                <mxCell id="142" value="No" style="text;html=1;resizable=0;autosize=1;align=center;verticalAlign=middle;points=[];fillColor=none;strokeColor=none;rounded=0;fontColor=#000000;" parent="1" vertex="1">
                    <mxGeometry x="480.62" y="210" width="30" height="20" as="geometry"/>
                </mxCell>
                <mxCell id="143" value="No" style="text;html=1;resizable=0;autosize=1;align=center;verticalAlign=middle;points=[];fillColor=none;strokeColor=none;rounded=0;fontColor=#000000;" parent="1" vertex="1">
                    <mxGeometry x="865" y="210" width="30" height="20" as="geometry"/>
                </mxCell>
            </root>
        </mxGraphModel>
    </diagram>
</mxfile>